<?xml version="1.0" encoding="iso-8859-1"?>
<!-- Generator: Adobe Illustrator 16.0.0, SVG Export Plug-In . SVG Version: 6.00 Build 0)  -->
<!DOCTYPE svg PUBLIC "-//W3C//DTD SVG 1.1//EN" "http://www.w3.org/Graphics/SVG/1.1/DTD/svg11.dtd">
<svg version="1.1" id="Capa_1" xmlns="http://www.w3.org/2000/svg" xmlns:xlink="http://www.w3.org/1999/xlink" x="0px" y="0px"
	 width="46.13px" height="46.13px" viewBox="0 0 46.13 46.13" style="enable-background:new 0 0 46.13 46.13;" xml:space="preserve"
	>
<g>
	<g>
		<g>
			<path d="M13.853,16.266c-0.717-2.029-1.565-3.99-2.367-5.093V1.661C11.486,0.744,10.743,0,9.825,0S8.163,0.744,8.163,1.661v9.512
				c-0.802,1.104-1.635,3.064-2.353,5.093H13.853z"/>
			<path d="M3.735,41.695c1.432,2.341,3.627,4.123,6.033,4.353h0.113c2.521-0.229,4.616-2.012,6.048-4.353H3.735z"/>
			<path d="M17.327,30.928H2.337c-0.294,2.062-0.453,3.674-0.453,4.631c0,0.685,0.082,1.439,0.237,2.127h15.423
				c0.153-0.688,0.236-1.442,0.236-2.127C17.781,34.602,17.621,32.99,17.327,30.928z"/>
			<path d="M16.648,26.918c-0.418-2.176-0.94-4.467-1.547-6.758H4.565c-0.607,2.292-1.13,4.582-1.549,6.758H16.648z"/>
		</g>
		<path d="M43.751,34.83l-3.783-4.325c-0.348-0.397-0.842-0.644-1.368-0.676c-0.541-0.049-1.051,0.14-1.45,0.491l-4.365,3.824
			c-0.828,0.727-0.914,1.988-0.187,2.817c0.724,0.829,1.985,0.913,2.817,0.185l0.979-0.858c-0.421,2.771-2.606,5.849-4.917,5.849
			c-2.57,0-4.357-3.188-4.99-6.773C25.49,29.712,27.5,22.36,30.223,18.016h1.737c1.912,0,3.465-1.551,3.465-3.465V3.465
			C35.426,1.551,33.875,0,31.96,0h-0.858c-1.913,0-3.465,1.551-3.465,3.465v11.076c-3.97,4.742-5.682,13.854-5.148,20.822
			c0.48,6.277,3.928,10.767,8.987,10.767c4.516,0,8.13-4.614,8.854-9.146l0.418,0.478c0.396,0.45,0.949,0.681,1.504,0.681
			c0.466,0,0.935-0.164,1.313-0.494C44.394,36.922,44.478,35.66,43.751,34.83z"/>
	</g>
</g>
<g>
</g>
<g>
</g>
<g>
</g>
<g>
</g>
<g>
</g>
<g>
</g>
<g>
</g>
<g>
</g>
<g>
</g>
<g>
</g>
<g>
</g>
<g>
</g>
<g>
</g>
<g>
</g>
<g>
</g>
</svg>
